<?xml version="1.0" encoding="UTF-8" standalone="no"?><!DOCTYPE svg PUBLIC "-//W3C//DTD SVG 1.1//EN" "http://www.w3.org/Graphics/SVG/1.1/DTD/svg11.dtd"><!-- Generated by graphviz version 2.40.1 (20161225.0304)
 --><!-- Title: %0 Pages: 1 --><svg xmlns="http://www.w3.org/2000/svg" xmlns:xlink="http://www.w3.org/1999/xlink" width="156pt" height="380pt" viewBox="0.00 0.00 155.86 380.00">
<g id="graph0" class="graph" transform="scale(1 1) rotate(0) translate(4 376)">
<title>%0</title>
<polygon fill="#ffffff" stroke="transparent" points="-4,4 -4,-376 151.8562,-376 151.8562,4 -4,4"/>
<!-- ProjectNotLoaded -->
<g id="node1" class="node">
<title>ProjectNotLoaded</title>
<polygon fill="none" stroke="#000000" points="147.8737,-372 19.8037,-372 19.8037,-336 147.8737,-336 147.8737,-372"/>
<text text-anchor="middle" x="83.8387" y="-349.8" font-family="Helvetica,sans-Serif" font-size="14.00" fill="#000000">ProjectNotLoaded</text>
</g>
<!-- Loading -->
<g id="node2" class="node">
<title>Loading</title>
<polygon fill="none" stroke="#000000" points="71.6412,-288 6.0362,-288 6.0362,-252 71.6412,-252 71.6412,-288"/>
<text text-anchor="middle" x="38.8387" y="-265.8" font-family="Helvetica,sans-Serif" font-size="14.00" fill="#000000">Loading</text>
</g>
<!-- ProjectNotLoaded&#45;&gt;Loading -->
<g id="edge1" class="edge">
<title>ProjectNotLoaded-&gt;Loading</title>
<path fill="none" stroke="#000000" d="M54.7499,-335.9747C48.9127,-330.9158 43.5454,-324.8845 40.1807,-318 37.2499,-312.0034 36.0211,-305.0628 35.7163,-298.3551"/>
<polygon fill="#000000" stroke="#000000" points="39.2187,-298.2325 35.886,-288.1754 32.2197,-298.1156 39.2187,-298.2325"/>
<text text-anchor="middle" x="51.6677" y="-309" font-family="Times,serif" font-style="italic" font-size="10.00" fill="#000000">Open</text>
</g>
<!-- Running -->
<g id="node4" class="node">
<title>Running</title>
<polygon fill="none" stroke="#000000" points="115.965,-120 47.7124,-120 47.7124,-84 115.965,-84 115.965,-120"/>
<text text-anchor="middle" x="81.8387" y="-97.8" font-family="Helvetica,sans-Serif" font-size="14.00" fill="#000000">Running</text>
</g>
<!-- ProjectNotLoaded&#45;&gt;Running -->
<g id="edge2" class="edge">
<title>ProjectNotLoaded-&gt;Running</title>
<path fill="none" stroke="#000000" d="M93.6867,-335.8877C110.577,-302.4465 141.6976,-228.8661 124.8387,-168 120.8825,-153.7168 112.5696,-139.6986 104.2978,-128.2808"/>
<polygon fill="#000000" stroke="#000000" points="106.9012,-125.9228 98.0531,-120.0951 101.3357,-130.1686 106.9012,-125.9228"/>
<text text-anchor="middle" x="137.1732" y="-225" font-family="Times,serif" font-style="italic" font-size="10.00" fill="#000000">Run</text>
</g>
<!-- Loading&#45;&gt;ProjectNotLoaded -->
<g id="edge3" class="edge">
<title>Loading-&gt;ProjectNotLoaded</title>
<path fill="none" stroke="#000000" d="M51.0411,-288.0176C54.6835,-293.6748 58.5725,-300.0092 61.8387,-306 65.3765,-312.4891 68.868,-319.6519 71.9915,-326.4203"/>
<polygon fill="#000000" stroke="#000000" points="68.9743,-328.2448 76.267,-335.9303 75.3588,-325.3745 68.9743,-328.2448"/>
<text text-anchor="middle" x="81.7212" y="-309" font-family="Times,serif" font-style="italic" font-size="10.00" fill="#000000">Cancel</text>
</g>
<!-- ReadyToRun -->
<g id="node3" class="node">
<title>ReadyToRun</title>
<polygon fill="none" stroke="#000000" points="116.3012,-204 17.3762,-204 17.3762,-168 116.3012,-168 116.3012,-204"/>
<text text-anchor="middle" x="66.8387" y="-181.8" font-family="Helvetica,sans-Serif" font-size="14.00" fill="#000000">ReadyToRun</text>
</g>
<!-- Loading&#45;&gt;ReadyToRun -->
<g id="edge4" class="edge">
<title>Loading-&gt;ReadyToRun</title>
<path fill="none" stroke="#000000" d="M46.2717,-251.799C48.489,-246.1343 50.855,-239.8419 52.8387,-234 55,-227.6349 57.1348,-220.7286 59.0613,-214.1908"/>
<polygon fill="#000000" stroke="#000000" points="62.4907,-214.9293 61.8912,-204.3514 55.7634,-212.9944 62.4907,-214.9293"/>
<text text-anchor="middle" x="76.2807" y="-225" font-family="Times,serif" font-style="italic" font-size="10.00" fill="#000000">Complete</text>
</g>
<!-- ReadyToRun&#45;&gt;Loading -->
<g id="edge5" class="edge">
<title>ReadyToRun-&gt;Loading</title>
<path fill="none" stroke="#000000" d="M40.6496,-204.0054C35.195,-209.1317 30.1927,-215.198 27.1807,-222 24.4464,-228.175 24.4975,-235.0931 25.8791,-241.7127"/>
<polygon fill="#000000" stroke="#000000" points="22.6672,-243.1787 28.9362,-251.7198 29.3617,-241.1335 22.6672,-243.1787"/>
<text text-anchor="middle" x="38.6677" y="-225" font-family="Times,serif" font-style="italic" font-size="10.00" fill="#000000">Open</text>
</g>
<!-- ReadyToRun&#45;&gt;Running -->
<g id="edge6" class="edge">
<title>ReadyToRun-&gt;Running</title>
<path fill="none" stroke="#000000" d="M56.2639,-167.6072C52.4367,-158.604 49.7961,-147.6517 53.1697,-138 54.2769,-134.8323 55.7925,-131.7349 57.5527,-128.7702"/>
<polygon fill="#000000" stroke="#000000" points="60.5794,-130.5475 63.403,-120.3358 54.8276,-126.5578 60.5794,-130.5475"/>
<text text-anchor="middle" x="62.1732" y="-141" font-family="Times,serif" font-style="italic" font-size="10.00" fill="#000000">Run</text>
</g>
<!-- Running&#45;&gt;ReadyToRun -->
<g id="edge7" class="edge">
<title>Running-&gt;ReadyToRun</title>
<path fill="none" stroke="#000000" d="M78.5903,-120.1912C76.6259,-131.1917 74.0805,-145.4461 71.8611,-157.8744"/>
<polygon fill="#000000" stroke="#000000" points="68.406,-157.3137 70.0935,-167.7733 75.297,-158.5443 68.406,-157.3137"/>
<text text-anchor="middle" x="88.7212" y="-141" font-family="Times,serif" font-style="italic" font-size="10.00" fill="#000000">Cancel</text>
</g>
<!-- Completed -->
<g id="node5" class="node">
<title>Completed</title>
<polygon fill="none" stroke="#000000" points="83.5167,-36 .1607,-36 .1607,0 83.5167,0 83.5167,-36"/>
<text text-anchor="middle" x="41.8387" y="-13.8" font-family="Helvetica,sans-Serif" font-size="14.00" fill="#000000">Completed</text>
</g>
<!-- Running&#45;&gt;Completed -->
<g id="edge8" class="edge">
<title>Running-&gt;Completed</title>
<path fill="none" stroke="#000000" d="M73.6259,-83.6978C69.5509,-74.716 64.5116,-63.7556 59.8387,-54 58.4935,-51.1917 57.0712,-48.2702 55.6394,-45.36"/>
<polygon fill="#000000" stroke="#000000" points="58.6999,-43.6537 51.1162,-36.2552 52.4309,-46.7681 58.6999,-43.6537"/>
<text text-anchor="middle" x="85.2807" y="-57" font-family="Times,serif" font-style="italic" font-size="10.00" fill="#000000">Complete</text>
</g>
<!-- Completed&#45;&gt;Loading -->
<g id="edge10" class="edge">
<title>Completed-&gt;Loading</title>
<path fill="none" stroke="#000000" d="M34.0769,-36.0215C20.75,-69.315 -3.8793,-142.6644 8.8387,-204 11.6138,-217.3835 17.4327,-231.2887 23.2138,-242.8647"/>
<polygon fill="#000000" stroke="#000000" points="20.2492,-244.7478 27.9934,-251.9782 26.4484,-241.4966 20.2492,-244.7478"/>
<text text-anchor="middle" x="18.6677" y="-141" font-family="Times,serif" font-style="italic" font-size="10.00" fill="#000000">Open</text>
</g>
<!-- Completed&#45;&gt;Running -->
<g id="edge9" class="edge">
<title>Completed-&gt;Running</title>
<path fill="none" stroke="#000000" d="M36.8836,-36.0962C35.2839,-45.4316 34.8789,-56.7658 39.1697,-66 40.9617,-69.8564 43.3927,-73.4484 46.1912,-76.7534"/>
<polygon fill="#000000" stroke="#000000" points="43.75,-79.2626 53.2598,-83.9332 48.7382,-74.3516 43.75,-79.2626"/>
<text text-anchor="middle" x="48.1732" y="-57" font-family="Times,serif" font-style="italic" font-size="10.00" fill="#000000">Run</text>
</g>
</g>
</svg>