<?xml version="1.0" encoding="UTF-8" standalone="no"?><!DOCTYPE svg PUBLIC "-//W3C//DTD SVG 1.1//EN" "http://www.w3.org/Graphics/SVG/1.1/DTD/svg11.dtd"><!-- Generated by graphviz version 2.40.1 (20161225.0304)
 --><!-- Title: %0 Pages: 1 --><svg xmlns="http://www.w3.org/2000/svg" xmlns:xlink="http://www.w3.org/1999/xlink" width="172pt" height="380pt" viewBox="0.00 0.00 172.25 380.00">
<g id="graph0" class="graph" transform="scale(1 1) rotate(0) translate(4 376)">
<title>%0</title>
<polygon fill="#ffffff" stroke="transparent" points="-4,4 -4,-376 168.2482,-376 168.2482,4 -4,4"/>
<!-- ProjectNotLoaded -->
<g id="node1" class="node">
<title>ProjectNotLoaded</title>
<polygon fill="none" stroke="#000000" points="164.2657,-372 36.1957,-372 36.1957,-336 164.2657,-336 164.2657,-372"/>
<text text-anchor="middle" x="100.2307" y="-349.8" font-family="Helvetica,sans-Serif" font-size="14.00" fill="#000000">ProjectNotLoaded</text>
</g>
<!-- Loading -->
<g id="node2" class="node">
<title>Loading</title>
<polygon fill="none" stroke="#000000" points="133.0332,-288 67.4282,-288 67.4282,-252 133.0332,-252 133.0332,-288"/>
<text text-anchor="middle" x="100.2307" y="-265.8" font-family="Helvetica,sans-Serif" font-size="14.00" fill="#000000">Loading</text>
</g>
<!-- ProjectNotLoaded&#45;&gt;Loading -->
<g id="edge1" class="edge">
<title>ProjectNotLoaded-&gt;Loading</title>
<path fill="none" stroke="#000000" d="M87.3276,-335.7536C84.1572,-330.296 81.2058,-324.1273 79.5727,-318 77.7517,-311.1678 78.9542,-304.0467 81.5079,-297.4459"/>
<polygon fill="#000000" stroke="#000000" points="84.7612,-298.761 86.0217,-288.2414 78.4762,-295.6789 84.7612,-298.761"/>
<text text-anchor="middle" x="91.0597" y="-309" font-family="Times,serif" font-style="italic" font-size="10.00" fill="#000000">Open</text>
</g>
<!-- Loading&#45;&gt;ProjectNotLoaded -->
<g id="edge2" class="edge">
<title>Loading-&gt;ProjectNotLoaded</title>
<path fill="none" stroke="#000000" d="M100.9082,-288.2334C101.1655,-297.1989 101.3673,-308.1655 101.2307,-318 101.197,-320.4265 101.1505,-322.9447 101.096,-325.4711"/>
<polygon fill="#000000" stroke="#000000" points="97.5916,-325.6027 100.8377,-335.6879 104.5894,-325.7796 97.5916,-325.6027"/>
<text text-anchor="middle" x="116.1132" y="-309" font-family="Times,serif" font-style="italic" font-size="10.00" fill="#000000">Cancel</text>
</g>
<!-- ReadyToRun -->
<g id="node3" class="node">
<title>ReadyToRun</title>
<polygon fill="none" stroke="#000000" points="98.6932,-204 -.2318,-204 -.2318,-168 98.6932,-168 98.6932,-204"/>
<text text-anchor="middle" x="49.2307" y="-181.8" font-family="Helvetica,sans-Serif" font-size="14.00" fill="#000000">ReadyToRun</text>
</g>
<!-- Loading&#45;&gt;ReadyToRun -->
<g id="edge3" class="edge">
<title>Loading-&gt;ReadyToRun</title>
<path fill="none" stroke="#000000" d="M67.3786,-258.4023C56.479,-252.8046 45.5529,-244.8796 39.3467,-234 35.8911,-227.9423 35.6617,-220.8427 36.9468,-213.9896"/>
<polygon fill="#000000" stroke="#000000" points="40.3405,-214.8516 39.714,-204.2753 33.6083,-212.9339 40.3405,-214.8516"/>
<text text-anchor="middle" x="59.6727" y="-225" font-family="Times,serif" font-style="italic" font-size="10.00" fill="#000000">Complete</text>
</g>
<!-- ReadyToRun&#45;&gt;Loading -->
<g id="edge4" class="edge">
<title>ReadyToRun-&gt;Loading</title>
<path fill="none" stroke="#000000" d="M65.2051,-204.0314C69.7187,-209.5839 74.4311,-215.8571 78.2307,-222 82.1186,-228.2856 85.7397,-235.373 88.8765,-242.1338"/>
<polygon fill="#000000" stroke="#000000" points="85.8514,-243.9469 93.1002,-251.6739 92.2522,-241.113 85.8514,-243.9469"/>
<text text-anchor="middle" x="96.0597" y="-225" font-family="Times,serif" font-style="italic" font-size="10.00" fill="#000000">Open</text>
</g>
<!-- Running -->
<g id="node4" class="node">
<title>Running</title>
<polygon fill="none" stroke="#000000" points="81.357,-120 13.1044,-120 13.1044,-84 81.357,-84 81.357,-120"/>
<text text-anchor="middle" x="47.2307" y="-97.8" font-family="Helvetica,sans-Serif" font-size="14.00" fill="#000000">Running</text>
</g>
<!-- ReadyToRun&#45;&gt;Running -->
<g id="edge5" class="edge">
<title>ReadyToRun-&gt;Running</title>
<path fill="none" stroke="#000000" d="M45.185,-167.7762C44.1083,-162.1105 43.0965,-155.8233 42.5617,-150 41.9828,-143.6973 42.153,-136.9315 42.6802,-130.5256"/>
<polygon fill="#000000" stroke="#000000" points="46.1984,-130.558 43.8355,-120.2301 39.2421,-129.7774 46.1984,-130.558"/>
<text text-anchor="middle" x="51.5652" y="-141" font-family="Times,serif" font-style="italic" font-size="10.00" fill="#000000">Run</text>
</g>
<!-- Running&#45;&gt;ReadyToRun -->
<g id="edge6" class="edge">
<title>Running-&gt;ReadyToRun</title>
<path fill="none" stroke="#000000" d="M54.4999,-120.0275C56.437,-125.6852 58.2598,-132.0172 59.2307,-138 60.2866,-144.5066 59.7887,-151.4688 58.5804,-158.0157"/>
<polygon fill="#000000" stroke="#000000" points="55.1539,-157.2953 56.2181,-167.8366 61.9598,-158.9324 55.1539,-157.2953"/>
<text text-anchor="middle" x="74.1132" y="-141" font-family="Times,serif" font-style="italic" font-size="10.00" fill="#000000">Cancel</text>
</g>
<!-- Completed -->
<g id="node5" class="node">
<title>Completed</title>
<polygon fill="none" stroke="#000000" points="146.9087,-36 63.5527,-36 63.5527,0 146.9087,0 146.9087,-36"/>
<text text-anchor="middle" x="105.2307" y="-13.8" font-family="Helvetica,sans-Serif" font-size="14.00" fill="#000000">Completed</text>
</g>
<!-- Running&#45;&gt;Completed -->
<g id="edge7" class="edge">
<title>Running-&gt;Completed</title>
<path fill="none" stroke="#000000" d="M41.5393,-83.5855C39.7185,-74.1629 39.3001,-62.8468 44.3467,-54 47.1608,-49.0669 50.9453,-44.7412 55.2577,-40.9645"/>
<polygon fill="#000000" stroke="#000000" points="57.622,-43.565 63.4947,-34.7467 53.4046,-37.9781 57.622,-43.565"/>
<text text-anchor="middle" x="64.6727" y="-57" font-family="Times,serif" font-style="italic" font-size="10.00" fill="#000000">Complete</text>
</g>
<!-- Completed&#45;&gt;Loading -->
<g id="edge9" class="edge">
<title>Completed-&gt;Loading</title>
<path fill="none" stroke="#000000" d="M108.871,-36.2409C109.8398,-41.9072 110.7499,-48.1905 111.2307,-54 117.8291,-133.7274 123.0491,-154.8778 111.2307,-234 110.8282,-236.6945 110.2651,-239.4661 109.6044,-242.2181"/>
<polygon fill="#000000" stroke="#000000" points="106.2116,-241.3551 106.8963,-251.9278 112.9543,-243.2358 106.2116,-241.3551"/>
<text text-anchor="middle" x="130.0597" y="-141" font-family="Times,serif" font-style="italic" font-size="10.00" fill="#000000">Open</text>
</g>
<!-- Completed&#45;&gt;Running -->
<g id="edge8" class="edge">
<title>Completed-&gt;Running</title>
<path fill="none" stroke="#000000" d="M98.7057,-36.1389C94.911,-45.4861 89.6153,-56.8179 83.2307,-66 80.7897,-69.5106 77.9858,-72.9798 75.0432,-76.2981"/>
<polygon fill="#000000" stroke="#000000" points="72.3579,-74.0439 68.0312,-83.715 77.4445,-78.8528 72.3579,-74.0439"/>
<text text-anchor="middle" x="98.5652" y="-57" font-family="Times,serif" font-style="italic" font-size="10.00" fill="#000000">Run</text>
</g>
</g>
</svg>